@startuml
skinparam nodesep 10
hide circle
hide empty members
class "GenomicAnnotationFile" [[{Information about a genomic annotation / track file. GenomicAnnotationFile is a specification of the File entity and inherits all the fields defined in File, in addition to the fields that are specific to GenomicAnnotationFile, as detailed here.}]] {
    {field} genomic_annotation_digest : curie  
    {field} file_external_id(i) : curie  
    {field} file_id(i) : curie  
    {field} file_name(i) : string  
    {field} file_label(i) : string  
    {field} file_description(i) : string  
    {field} filecollection_refs(i) : curie  [1..*]
    {field} drs_uri(i) : uri  
    {field} run_provenance(i) : uriorcurie  
    {field} mime_type(i) : string  
    {field} data_content(i) : OutputType  
    {field} file_size(i) : integer  
    {field} created_time(i) : datetime  
    {field} updated_time(i) : datetime  
    {field} file_version(i) : string  
}
class "TrackGeometry" [[{Overall geometric properties of the sequence features in the genomic annotation file if considered as an one-dimensional genome browser track, in line with the track type delineations from Gundersen et. al, 2011. While conceptually based on visual characteristics, these properties are also useful to e.g. select relevant annotation files for non-visual analyses.}]] {
    {field} has_gaps : boolean  
    {field} has_lengths : boolean  
    {field} has_strands : boolean  
    {field} has_values : boolean  
    {field} has_edges : boolean  
    {field} has_names : boolean  
    {field} elements_overlapping : boolean  
    {field} elements_circular : boolean  
    {field} lengths_constant : boolean  
    {field} value_type : DataTypes  
    {field} edges_have_weights : boolean  
    {field} edge_weight_type : DataTypes  
    {field} edges_are_directed : boolean  
    {field} edges_denote_parents : boolean  
}
"GenomicAnnotationFile" *--> "1" "TrackGeometry" : "track_geometry"
class "Analysis" [[{Represents the computational processing applied to data from a sequencing experiment, or from another analysis. This can be described at the level of individual analysis steps in a workflow/pipeline, or more generally for the workflow/pipeline as a whole.}]] {
    {field} analysis_external_id : curie  
    {field} analysis_id : curie  
    {field} analysis_label : string  
    {field} analysis_description : string  
    {field} analysis_study_ref : curie  
    {field} analysis_main_tool_version : string  
    {field} analysis_protocol : uriorcurie  
    {field} analysis_workflow : uriorcurie  
}
class "Term" [[{Helper entity to represent an ontology term as a data value. }]] {
    {field} id : curie  
    {field} label : string  
}
class "Experiment" [[{Represents a sequencing experiment that has been carried out within a study, based on biological samples, and providing data files as output. Subsequent analysis of output data is described by the Analysis entity.}]] {
    {field} experiment_external_id : curie  
    {field} experiment_id : curie  
    {field} experiment_label : string  
    {field} experiment_study_ref : curie  
    {field} design_description : string  
    {field} sequencing_protocol : uriorcurie  
}
class "Sample" [[{Information about a biospecimen/sample used as raw material for lab experiments.}]] {
    {field} sample_external_id : curie  
    {field} sample_id : curie  
    {field} sample_label : string  
    {field} sample_description : string  
    {field} donor_organism_ref : curie  
    {field} biospecimen_classification : BiospecimenClassification  
    {field} sampling_protocol : uri  
    {field} sample_collection_location : string  
    {field} sample_collection_date : datetime  
    {field} donor_age : string  
    {field} donor_clinical_information : string  
}
class "File" [[{General information about a particular data file. Most fields (marked with an asterix*) are copied from the GA4GH DRS DrsObject model (https://ga4gh.github.io/data-repository-service-schemas/preview/release/drs-1.4.0/docs/#tag/DrsObjectModel), which is the top-level object returned from a DRS server in response to a successful lookup call (i.e. https://ga4gh.github.io/data-repository-service-schemas/preview/release/drs-1.4.0/docs/#tag/Objects).}]] {
    {field} file_external_id : curie  
    {field} file_id : curie  
    {field} file_name : string  
    {field} file_label : string  
    {field} file_description : string  
    {field} filecollection_refs : curie  [1..*]
    {field} drs_uri : uri  
    {field} run_provenance : uriorcurie  
    {field} mime_type : string  
    {field} data_content : OutputType  
    {field} file_size : integer  
    {field} created_time : datetime  
    {field} updated_time : datetime  
    {field} file_version : string  
}
class "Donor" [[{Information about the donor or complete organism from which the sample was taken.}]] {
    {field} donor_external_id : curie  
    {field} donor_id : curie  
}
"Analysis" *--> "1" "Term" : "analysis_type"
"Experiment" *--> "0..1" "Term" : "antibody_target"
"Experiment" *--> "1" "Term" : "assay_type"
"Experiment" *--> "0..*" "Term" : "biological_processes"
"Sample" *--> "0..1" "Term" : "cell_line"
"Sample" *--> "0..1" "Term" : "cell_type"
"Sample" *--> "0..1" "Term" : "donor_development_stage"
"File" *--> "1" "Term" : "file_type"
"Experiment" *--> "0..1" "Term" : "instrument"
"Experiment" *--> "0..1" "Term" : "library_layout"
"Experiment" *--> "1" "Term" : "molecule_type"
"Sample" *--> "0..1" "Term" : "organism_tissue"
"Sample" *--> "0..*" "Term" : "other_biospecimen"
"Sample" *--> "0..1" "Term" : "phenotype"
"GenomicAnnotationFile" *--> "1..*" "Term" : "sequence_features"
"Donor" *--> "0..1" "Term" : "sex"
"Donor" *--> "1" "Term" : "species_taxon"
class "Study" [[{A scientific study, i.e. a unit of research, within which experiments and/or analyses have been carried out.}]] {
    {field} study_external_id : curie  
    {field} study_id : curie  
    {field} study_title : string  
    {field} study_abstract : string  
    {field} project_external_ref : uriorcurie  
    {field} project_name : string  
    {field} publications : curie  [0..*]
}
class "Contact" [[{Contact information for a person or an organisation.}]] {
    {field} name : string  
    {field} contact_id : curie  
    {field} email : string  
}
class "Bundle" [[{A bundle representing a set of genome annotation files, organised in sub-collections. Metadata has been harmonised in line with the "FAIRification of Genomic Annotations" data model.}]] {

}
"Study" *--> "0..1" "Contact" : "study_contact"
"Bundle" *--> "0..*" "Study" : "studies"
"Bundle" *--> "0..*" "Sample" : "samples"
class "QualityAssessment" [[{Represents the results of a quality assessment that has been carried out on a data file resulting from an experiment or analysis.}]] {
    {field} assessment_details_url : uri  
}
class "Any" [[{The Any allows the range of a slot to be any object (see https://linkml.io/linkml/schemas/advanced.html#linkml-any-type).}]] {

}
"QualityAssessment" *--> "1" "Any" : "assessment_values"
"QualityAssessment" *--> "1" "Any" : "assessment_method"
"File" *--> "0..*" "QualityAssessment" : "quality_assessments"
class "BundleMetadata" [[{Top-level metadata about a bundle representing a set of genome annotation files, harmonised according to the "FAIRification of Genomic Annotations" data model.  This includes self-referential identifiers and versioning of public deposits of the harmonized metadata.}]] {
    {field} bundle_label : string  
}
class "OntologyVersions" [[{Information about an ontology used for the bundle.}]] {
    {field} namespace : string  
    {field} ontology_url : uri  
    {field} versioned_ontology_url : uri  
}
"BundleMetadata" *--> "1..*" "OntologyVersions" : "bundle_ontology_versions"
class "InputSource" [[{General object representing the source of data files, samples, or other entities used as input to a process or a result. An input source refering to a single file or sample object will represent that item only, while an input source referring to a container or process may represent a number of disctinct input items. InputSource also contains information about the type of relationship, replication labelling, versioning and retrieval date.}]] {
    {field} inputsource_external_ref : uriorcurie  
    {field} inputsource_ref : curie  
    {field} qualified_relation : uriorcurie  
    {field} biological_replicate_labels : string  [0..*]
    {field} technical_replicate_labels : string  [0..*]
    {field} version : string  
    {field} date_of_retrieval : date  
}
class "FileCollection" [[{A collection of files, according to some selection criteria. In the context of the "FAIRification of Genomic Annotations" data model, we are mainly interested in "GenomicAnnotationFile" entities, but other types of files can also be contained in a collection, e.g. raw data files such as FASTQ files.}]] {
    {field} filecollection_external_id : curie  
    {field} filecollection_id : curie  
    {field} filecollection_label : string  
    {field} deposit_versioned_ref : curie  
}
"InputSource" *--> "0..*" "Any" : "database_accessions"
"Analysis" *--> "1..*" "InputSource" : "analysis_input_sources"
"BundleMetadata" *--> "0..*" "InputSource" : "bundle_input_sources"
"Experiment" *--> "1..*" "InputSource" : "experiment_samples"
"File" *--> "1..*" "InputSource" : "file_input_sources"
"FileCollection" *--> "0..*" "InputSource" : "filecollection_input_sources"
class "GenomeAssembly" [[{Information about of the exact genome assembly used to generate the annotation file, defining the genomic coordinate system for the sequence features.}]] {
    {field} seqcol_digest : curie  
    {field} seqcol_ordered_coord_system : curie  
    {field} seqcol_unordered_coord_system : curie  
    {field} accessions : string  [0..*]
    {field} aliases : curie  [1..*]
}
"GenomicAnnotationFile" --> "1" "GenomeAssembly" : "genome_assembly"
"File" ^-- "GenomicAnnotationFile"
"FileCollection" *--> "0..1" "Contact" : "filecollection_contact"
"FileCollection" *--> "0..1" "Any" : "filecollection_description"
"Bundle" *--> "0..*" "FileCollection" : "file_collections"
class "Checksum" [[{A checksum of a File object (orig: DrsObject). Exact copy of the Checksum object of the GA4GH DRS data model (https://ga4gh.github.io/data-repository-service-schemas/preview/release/drs-1.4.0/docs/#tag/ChecksumModel).}]] {
    {field} checksum : string  
    {field} checksum_type : string  
}
class "AccessMethod" [[{Description of an access method (i.e. communication protocol) that can be used to fetch a File object (orig: DrsObject). Exact copy of the AccessMethod object of the GA4GH DRS data model (https://ga4gh.github.io/data-repository-service-schemas/preview/release/drs-1.4.0/docs/#tag/AccessMethodModel)}]] {
    {field} access_method : AccessMethods  
    {field} region : string  
}
"File" *--> "1..*" "Checksum" : "checksums"
"File" *--> "1..*" "AccessMethod" : "access_methods"
"Bundle" *--> "0..*" "File" : "files"
"Bundle" *--> "0..*" "Experiment" : "experiments"
"Bundle" *--> "0..*" "Donor" : "donors"
class "Deposit" [[{Information about a public deposit of a document containing metadata about a set of genome annotation files.}]] {
    {field} deposit_id : curie  
    {field} deposit_versioned_id : curie  
    {field} deposit_first_created : datetime  
    {field} deposit_last_changed : datetime  
}
"BundleMetadata" *--> "0..1" "Deposit" : "bundle_deposit"
"BundleMetadata" *--> "0..1" "Any" : "bundle_description"
"Bundle" *--> "1" "BundleMetadata" : "bundle_metadata"
"Bundle" *--> "0..*" "Analysis" : "analyses"
class "AssessmentValue" [[{Key-value pair representing a specific value produced by a quality assessment.}]] {
    {field} key : string  
}
"AssessmentValue" *--> "1" "Any" : "value"
"Analysis" *--> "0..1" "Any" : "analysis_main_tool"
class "AccessURL" [[{The URL and associated HTTP headers to access the File object (orig: DrsObject). Exact copy of AccessURL object of the GA4GH DRS data model (https://ga4gh.github.io/data-repository-service-schemas/preview/release/drs-1.4.0/docs/#tag/AccessURLModel).}]] {
    {field} url : uri  
    {field} headers : string  [0..*]
}
"AccessMethod" *--> "1" "AccessURL" : "access_url"
@enduml
